<mxfile host="app.diagrams.net" modified="2024-06-12T15:24:59.522Z" agent="Mozilla/5.0 (X11; Linux x86_64) AppleWebKit/537.36 (KHTML, like Gecko) Chrome/124.0.0.0 Safari/537.36" etag="tX3XjYxPrl0NSv-dDNq8" version="24.5.3" type="device" pages="2">
  <diagram name="Página-1" id="phUeMulHxi-c-Aftva1a">
    <mxGraphModel dx="1659" dy="1074" grid="1" gridSize="10" guides="1" tooltips="1" connect="1" arrows="1" fold="1" page="0" pageScale="1" pageWidth="827" pageHeight="1169" math="0" shadow="0">
      <root>
        <mxCell id="0" />
        <mxCell id="1" parent="0" />
        <mxCell id="u4BsiaAiv1DFlUL4CwvM-1" value="" style="rounded=0;whiteSpace=wrap;html=1;" vertex="1" parent="1">
          <mxGeometry x="-190" y="-75" width="350" height="257" as="geometry" />
        </mxCell>
        <mxCell id="dXgtLmE1LZW7w1yGKbd0-24" value="" style="rounded=0;whiteSpace=wrap;html=1;" parent="1" vertex="1">
          <mxGeometry x="453" y="-89" width="406" height="319" as="geometry" />
        </mxCell>
        <mxCell id="dXgtLmE1LZW7w1yGKbd0-1" value="DATABASE&lt;div&gt;SERVER&lt;/div&gt;" style="shape=cylinder3;whiteSpace=wrap;html=1;boundedLbl=1;backgroundOutline=1;size=15;" parent="1" vertex="1">
          <mxGeometry x="-361" y="-4" width="80" height="119" as="geometry" />
        </mxCell>
        <mxCell id="dXgtLmE1LZW7w1yGKbd0-5" value="SERVER&lt;div&gt;localhost:8081&lt;/div&gt;" style="rounded=1;whiteSpace=wrap;html=1;" parent="1" vertex="1">
          <mxGeometry x="473" y="25.5" width="120" height="60" as="geometry" />
        </mxCell>
        <mxCell id="dXgtLmE1LZW7w1yGKbd0-12" style="edgeStyle=orthogonalEdgeStyle;rounded=0;orthogonalLoop=1;jettySize=auto;html=1;exitX=1;exitY=0.5;exitDx=0;exitDy=0;entryX=0;entryY=0.5;entryDx=0;entryDy=0;" parent="1" source="dXgtLmE1LZW7w1yGKbd0-6" target="dXgtLmE1LZW7w1yGKbd0-5" edge="1">
          <mxGeometry relative="1" as="geometry" />
        </mxCell>
        <mxCell id="dXgtLmE1LZW7w1yGKbd0-6" value="REST API&lt;div&gt;localhost:8080&lt;/div&gt;" style="rounded=1;whiteSpace=wrap;html=1;" parent="1" vertex="1">
          <mxGeometry x="-93" y="-32" width="145" height="175" as="geometry" />
        </mxCell>
        <mxCell id="dXgtLmE1LZW7w1yGKbd0-7" value="" style="endArrow=classic;startArrow=classic;html=1;rounded=0;entryX=0;entryY=0.5;entryDx=0;entryDy=0;exitX=1;exitY=0.5;exitDx=0;exitDy=0;exitPerimeter=0;" parent="1" source="dXgtLmE1LZW7w1yGKbd0-1" target="dXgtLmE1LZW7w1yGKbd0-6" edge="1">
          <mxGeometry width="50" height="50" relative="1" as="geometry">
            <mxPoint x="-225" y="58" as="sourcePoint" />
            <mxPoint x="-231" y="11" as="targetPoint" />
          </mxGeometry>
        </mxCell>
        <mxCell id="dXgtLmE1LZW7w1yGKbd0-10" style="edgeStyle=orthogonalEdgeStyle;rounded=0;orthogonalLoop=1;jettySize=auto;html=1;exitX=0;exitY=0.25;exitDx=0;exitDy=0;entryX=1.017;entryY=0.418;entryDx=0;entryDy=0;entryPerimeter=0;" parent="1" source="dXgtLmE1LZW7w1yGKbd0-5" target="dXgtLmE1LZW7w1yGKbd0-6" edge="1">
          <mxGeometry relative="1" as="geometry" />
        </mxCell>
        <mxCell id="dXgtLmE1LZW7w1yGKbd0-13" value="REQUEST" style="text;html=1;align=center;verticalAlign=middle;whiteSpace=wrap;rounded=0;" parent="1" vertex="1">
          <mxGeometry x="270" y="9" width="60" height="30" as="geometry" />
        </mxCell>
        <mxCell id="dXgtLmE1LZW7w1yGKbd0-14" value="RESPONSE" style="text;html=1;align=center;verticalAlign=middle;whiteSpace=wrap;rounded=0;" parent="1" vertex="1">
          <mxGeometry x="270" y="55" width="60" height="30" as="geometry" />
        </mxCell>
        <mxCell id="dXgtLmE1LZW7w1yGKbd0-15" value="FRONT END" style="rounded=1;whiteSpace=wrap;html=1;" parent="1" vertex="1">
          <mxGeometry x="-80.5" y="340" width="120" height="60" as="geometry" />
        </mxCell>
        <mxCell id="dXgtLmE1LZW7w1yGKbd0-22" style="edgeStyle=orthogonalEdgeStyle;rounded=0;orthogonalLoop=1;jettySize=auto;html=1;exitX=0.75;exitY=0;exitDx=0;exitDy=0;entryX=0.709;entryY=0.995;entryDx=0;entryDy=0;entryPerimeter=0;" parent="1" source="dXgtLmE1LZW7w1yGKbd0-15" target="dXgtLmE1LZW7w1yGKbd0-6" edge="1">
          <mxGeometry relative="1" as="geometry" />
        </mxCell>
        <mxCell id="dXgtLmE1LZW7w1yGKbd0-23" style="edgeStyle=orthogonalEdgeStyle;rounded=0;orthogonalLoop=1;jettySize=auto;html=1;exitX=0.25;exitY=1;exitDx=0;exitDy=0;entryX=0.198;entryY=0.042;entryDx=0;entryDy=0;entryPerimeter=0;" parent="1" source="dXgtLmE1LZW7w1yGKbd0-6" target="dXgtLmE1LZW7w1yGKbd0-15" edge="1">
          <mxGeometry relative="1" as="geometry" />
        </mxCell>
        <mxCell id="dXgtLmE1LZW7w1yGKbd0-25" value="COMMAND LINE INTERFACE" style="text;html=1;align=center;verticalAlign=middle;whiteSpace=wrap;rounded=0;" parent="1" vertex="1">
          <mxGeometry x="445" y="-120" width="220" height="31" as="geometry" />
        </mxCell>
        <mxCell id="dXgtLmE1LZW7w1yGKbd0-29" value="CLIENT" style="shape=hexagon;perimeter=hexagonPerimeter2;whiteSpace=wrap;html=1;fixedSize=1;" parent="1" vertex="1">
          <mxGeometry x="745" y="20.5" width="105" height="70" as="geometry" />
        </mxCell>
        <mxCell id="dXgtLmE1LZW7w1yGKbd0-30" value="" style="endArrow=classic;startArrow=classic;html=1;rounded=0;entryX=1;entryY=0.5;entryDx=0;entryDy=0;" parent="1" source="dXgtLmE1LZW7w1yGKbd0-29" target="dXgtLmE1LZW7w1yGKbd0-5" edge="1">
          <mxGeometry width="50" height="50" relative="1" as="geometry">
            <mxPoint x="836" y="-90" as="sourcePoint" />
            <mxPoint x="640" y="50" as="targetPoint" />
          </mxGeometry>
        </mxCell>
        <mxCell id="dNkxJDgah_gbulALN-8I-1" value="JWT TOKEN" style="rounded=0;whiteSpace=wrap;html=1;" parent="1" vertex="1">
          <mxGeometry x="-230" y="-230" width="120" height="62" as="geometry" />
        </mxCell>
        <mxCell id="u4BsiaAiv1DFlUL4CwvM-2" value="BACKEND" style="text;html=1;align=center;verticalAlign=middle;resizable=0;points=[];autosize=1;strokeColor=none;fillColor=none;" vertex="1" parent="1">
          <mxGeometry x="-190" y="-104" width="76" height="26" as="geometry" />
        </mxCell>
        <mxCell id="u4BsiaAiv1DFlUL4CwvM-3" value="TCP" style="text;html=1;align=center;verticalAlign=middle;resizable=0;points=[];autosize=1;strokeColor=none;fillColor=none;" vertex="1" parent="1">
          <mxGeometry x="648" y="29" width="42" height="26" as="geometry" />
        </mxCell>
        <mxCell id="u4BsiaAiv1DFlUL4CwvM-4" value="" style="endArrow=classic;startArrow=classic;html=1;rounded=0;exitX=0.5;exitY=0;exitDx=0;exitDy=0;entryX=1;entryY=0.5;entryDx=0;entryDy=0;" edge="1" parent="1" source="dXgtLmE1LZW7w1yGKbd0-6" target="dNkxJDgah_gbulALN-8I-1">
          <mxGeometry width="50" height="50" relative="1" as="geometry">
            <mxPoint x="70" y="-90" as="sourcePoint" />
            <mxPoint x="120" y="-140" as="targetPoint" />
            <Array as="points">
              <mxPoint x="-20" y="-200" />
            </Array>
          </mxGeometry>
        </mxCell>
      </root>
    </mxGraphModel>
  </diagram>
  <diagram id="p-rMDhdG2auA3YirPRQP" name="Página-2">
    <mxGraphModel dx="1259" dy="674" grid="1" gridSize="10" guides="1" tooltips="1" connect="1" arrows="1" fold="1" page="1" pageScale="1" pageWidth="827" pageHeight="1169" math="0" shadow="0">
      <root>
        <mxCell id="0" />
        <mxCell id="1" parent="0" />
      </root>
    </mxGraphModel>
  </diagram>
</mxfile>
